#!OML:ASF F:\VICON\USERDATA\INSTALL\rory3\rory3.ASF
:FULLY-SPECIFIED
:DEGREES
26
root 0.6007225745010618 18.03624548957426 -4.642578846864776 2.732103410144739 3.315987630791061 1.6965610556933277
lfemur 6.418240429869819 1.4013104232115117 -27.99977612250944
ltibia 20.443512051607136
lfoot 1.0401868928087183 -8.781793517702065
ltoes -9.06596259852262
rfemur -30.05868891176074 8.911968944411484 17.621168426047618
rtibia 46.81012520572045
rfoot 0.8343197810691803 -15.757034756455546
rtoes -5.298441814266271
lowerback 11.431548862716099 -0.368758376247571 -3.7505414087957307
upperback -0.3965607653385121 -1.0882473524821052 0.8269428035223616
thorax -6.743380408604855 -0.4361088702336795 3.7074296375719005
lowerneck -19.278814762515044 -3.07956406102905 -2.4618346079852103
upperneck 16.42164095579417 -3.895835918404256 1.7140730993832904
head 8.430156454756585 -1.7729780225319072 0.3392940303440062
lclavicle -2.261939721677892e-15 6.845389961527164e-16
lhumerus -24.4199693269993 -13.24206647198607 89.45240650020568
lradius 74.47289407459084
lwrist 21.897140554639222
lhand -27.595166880843358 12.94173820308836
lfingers 7.125019999999999
lthumb -1.2347075490711081 42.98488853729336
rclavicle -2.2610180458022973e-15 6.852106814001931e-16
rhumerus -51.93005512899746 -13.663837855029758 -83.82394556191988
rradius 65.82362478277835
rwrist -2.3827766264619963
rhand -16.86451414575222 31.06157173522635
rfingers 7.125019999999999
rthumb 9.255080898471256 1.1061418035933817
27
root 0.5069325697866893 17.954121617212614 -3.7943718955863464 2.9229901897537585 4.400223801192166 1.6631775040789427
lfemur 9.50710618526876 0.8165868956335025 -27.065394298657395
ltibia 20.16773271720108
lfoot 2.301331653772403 -11.540707679396618
ltoes -9.16819839211962
rfemur -29.80608485915952 7.716484976724191 18.12781770016626
rtibia 33.138258976991885
rfoot -2.4486155869812753 -20.657276479333554
rtoes -9.521485049648163
lowerback 11.391908570194303 -0.6232089124587359 -3.9104019782227315
upperback -0.4788239610172848 -1.4892216780504142 1.030340308906733
thorax -6.756933108040059 -0.6285024641392194 4.070470443477561
lowerneck -19.49566370457655 -3.013764929791347 -2.3576291508117233
upperneck 16.570191425803177 -3.811158552254735 1.5843625775442511
head 8.538428083504549 -1.7324329124678248 0.2733928407925704
lclavicle -2.261626397125827e-15 6.847578454258198e-16
lhumerus -22.38469878041511 -13.612113229269443 89.43512936162296
lradius 75.37225518509058
lwrist 21.920298912118295
lhand -27.826430224655375 12.985043434862302
lfingers 7.125019999999999
lthumb -1.334218000134784 43.09860698406704
rclavicle -2.2610029073198484e-15 6.85221443610759e-16
rhumerus -52.497576345847875 -14.832320016673968 -83.20668344132629
rradius 65.39244241253357
rwrist -2.127663754476087
rhand -17.014047196561517 31.107997515794004
rfingers 7.125019999999999
rthumb 9.030628671922958 1.410789220552172
28
root 0.4045175803568076 17.853498029983083 -2.926420381493683 2.8037827089325207 4.8109996606249945 1.3604023632775508
lfemur 11.485235888077185 -0.26463130398734536 -26.028490928094897
ltibia 23.39649538191415
lfoot 4.468912193405172 -13.677721461326842
ltoes -9.454766826197138
rfemur -29.66462374696345 5.997257567331766 19.582251443459946
rtibia 27.420138909538952
rfoot -3.650283396191024 -16.63399367090965
rtoes -9.739165041930628
lowerback 11.577744787714602 -0.6789874287519224 -3.7768423309279457
upperback -0.3140419957897151 -1.5137869145727887 1.4059613678248577
thorax -6.754545359812267 -0.6307962855675417 4.3384538800268935
lowerneck -19.64118725948757 -2.9175021785492072 -2.386256948313993
upperneck 16.64662011176433 -3.6222622140026868 1.3748781291960905
head 8.539323949380684 -1.6536888568341441 0.22058830697389747
lclavicle -2.2621395610067954e-15 6.843965661103917e-16
lhumerus -22.184908311742394 -13.170858284784995 89.68264462684759
lradius 75.56719366810212
lwrist 21.8287757657933
lhand -27.965829107319173 12.758707034674378
lfingers 7.125019999999999
lthumb -1.526301655735246 42.649316925740024
rclavicle -2.26055340285965e-15 6.855366144994938e-16
rhumerus -52.55380404509213 -15.856594704776924 -82.57111899082231
rradius 64.78722009846206
rwrist -1.2938949647557283
rhand -17.039669548050192 31.22363714178579
rfingers 7.125019999999999
rthumb 9.00667128196489 1.1936596372288204
29
root 0.29843244982794126 17.903288609059004 -2.202975350022651 2.3010427284891364 5.195495384879897 0.7416983042728171
lfemur 11.806818184745094 -1.7214919234422292 -24.55485214195585
ltibia 30.2150788915431
lfoot 9.876659516058652 -15.21755396931788
ltoes -5.84363493376031
rfemur -28.393889281654992 5.693477962724687 20.879259847364022
rtibia 26.644234496746726
rfoot -1.175956169824727 -11.666502395751246
rtoes -5.285338782330696
lowerback 11.877358421659471 -0.7775556913389254 -3.1530877077997905
upperback -0.21898048229510406 -1.6151309002173253 1.9053294186931873
thorax -6.866352431828569 -0.6806957917847349 4.351474832298079
lowerneck -19.53773264483806 -2.7712896744936986 -2.3970030184774744
upperneck 16.784771999353897 -3.336086551114121 1.0401348124000567
head 8.49712244845107 -1.547584918051305 0.15509442987257743
lclavicle -2.2627445265420055e-15 6.839743682000352e-16
lhumerus -23.66767675118594 -12.18764483131466 90.17280928312341
lradius 75.301508050471
lwrist 21.488803964426427
lhand -28.170138809359013 12.741031473195134
lfingers 7.125019999999999
lthumb -1.664251122473044 42.88862063103596
rclavicle -2.2612212836547206e-15 6.850683967990002e-16
rhumerus -52.06021353062992 -16.463736811678643 -82.1806374093887
rradius 64.12372703469418
rwrist -0.5236708419362119
rhand -17.107195450961367 31.20589179104574
rfingers 7.125019999999999
rthumb 8.896085532525719 1.096897374171122
30
root 0.2075273408287892 18.128920122311964 -1.5833024225859873 1.8065124110240558 4.514924705692523 -0.9683673796226466
lfemur 9.01499335032915 -1.5409259140949163 -21.55602491064933
ltibia 40.41240572729093
lfoot 19.160148722507387 -16.839056287394467
ltoes 1.6123360473889754
rfemur -25.663002415842207 6.386517608368104 23.30899963163631
rtibia 27.282955899660806
rfoot 1.5057166122991692 -6.232421745789954
rtoes 5.436335105251537
lowerback 12.16226505464243 -0.6399079254064306 -1.6289980167036957
upperback -0.2886659291422185 -1.1574047935715281 2.617872828614259
thorax -7.072408698840254 -0.4627723400133512 3.9572393325681547
lowerneck -19.27177138527534 -2.563743104555684 -2.450308672106363
upperneck 17.190217098910228 -2.9287773370396155 0.6646244752822146
head 8.558578081947402 -1.3983776247921877 0.09295547988721076
lclavicle -2.2632050992787134e-15 6.836465785903052e-16
lhumerus -26.72614340447959 -10.934950215187563 90.88123793622385
lradius 74.4525078437433
lwrist 20.929030860245504
lhand -28.005860104718263 13.059687682250882
lfingers 7.125019999999999
lthumb -1.4157476821240698 43.162616262629015
rclavicle -2.2593341733234004e-15 6.863914088963878e-16
rhumerus -50.93837230099875 -16.3766686598049 -82.39599083605314
rradius 63.763291838777754
rwrist -0.07621866532864963
rhand -17.074296844509036 30.700102547665168
rfingers 7.125019999999999
rthumb 8.997859384081604 1.04093009530273
31
root 0.14589403058403014 18.188887819733573 -1.2482834608784845 1.4305570107061742 4.3987504941173885 -1.5247011143730032
lfemur 3.401996793690781 -0.5362938735297225 -19.205499677563783
ltibia 53.119673106054734
lfoot 22.157930733543935 -18.546133222641792
ltoes 1.633390593594168
rfemur -22.133196600034683 6.605320210161139 24.908176831246887
rtibia 28.730683791956288
rfoot 2.3268228444947443 -2.7517513186110523
rtoes 14.826055343279837
lowerback 12.49462402744989 -0.5795640538997848 -0.7923330130457897
upperback -0.22662551114977333 -0.9027338325793326 2.859668118444836
thorax -7.175449764933145 -0.38554782142990374 3.619800372136953
lowerneck -19.14482428874069 -2.4134408495815762 -2.51480513045542
upperneck 17.101331019173905 -2.7421165042448745 0.6735696331076124
head 8.465614021316108 -1.3378653586792648 0.13296353765597319
lclavicle -2.261686881868704e-15 6.847117302509637e-16
lhumerus -30.19573521175517 -10.278231819693318 91.65914328876916
lradius 73.60819900254042
lwrist 20.797969192724604
lhand -27.5587426370324 12.820537780212543
lfingers 7.125019999999999
lthumb -0.9060149539614863 43.07265273140368
rclavicle -2.2606585086370832e-15 6.854627222157173e-16
rhumerus -48.67530380766852 -14.765913469617704 -83.83753905962624
rradius 64.21135765043108
rwrist -0.25128960517980703
rhand -16.7865546993738 31.093840286866254
rfingers 7.125019999999999
rthumb 9.420813154672588 1.1208689023396785
32
root 0.11304375414733217 18.27926014986007 -0.2729851621238737 1.8157002920178897 4.363900283887951 -3.1487269470209305
lfemur -4.135449863075496 0.549463756383282 -16.09551462490634
ltibia 65.41011307946184
lfoot 17.611596247795386 -16.313923088521854
ltoes 1.335548325808178
rfemur -18.604574094275254 7.105444728512874 27.402015786706713
rtibia 28.511604539014105
rfoot 1.7121415313994062 -1.6837528975914875
rtoes 16.432500934631836
lowerback 12.71056432940666 -0.5300531755664775 1.139043614645801
upperback -0.3360318041939667 -0.4840540867788823 3.195302596377708
thorax -7.327710835402278 -0.2206265165550294 2.787812464372496
lowerneck -19.023651861545467 -2.3112427039093726 -2.5052771547348476
upperneck 17.03036621410593 -2.605459355099169 0.7766831570469301
head 8.43620331635531 -1.2730790343886471 0.1845213005270423
lclavicle -2.264603779923394e-15 6.826690933656765e-16
lhumerus -32.586966762432944 -10.521881316088244 92.32537437861083
lradius 72.61100078124812
lwrist 20.157985322925686
lhand -27.425925976343283 13.048287686084224
lfingers 7.125019999999999
lthumb -0.6338523619760588 42.86417261381523
rclavicle -2.2605321140934912e-15 6.855513347987253e-16
rhumerus -45.47074981627796 -11.791693443346066 -86.28836651395797
rradius 65.2543958121564
rwrist -1.1592290036993607
rhand -16.54766028941285 31.585741124138142
rfingers 7.125019999999999
rthumb 9.688944476644807 1.9349873473834944
33
root 0.10443040470741746 18.474962854430412 0.6127210246018464 1.921716581057266 4.106673829999937 -4.082693889413537
lfemur -11.81068327465734 1.9400859495430511 -14.57505390918811
ltibia 74.3676648105301
lfoot 12.348394360711655 -11.604584349570528
ltoes -1.1074973776652826
rfemur -14.553647297747057 7.349597081487556 29.363175421116743
rtibia 26.461470118734987
rfoot 0.4159169053717522 -1.8274827097908704
rtoes 13.030903745974639
lowerback 12.814894713092945 -0.32112799963868577 2.5733533754376117
upperback -0.3391157758412886 0.08836726699789454 3.3212518215434264
thorax -7.473406291092833 0.028241174925440427 1.9028644402989823
lowerneck -18.823371998952148 -2.3163347266376357 -2.536253697545036
upperneck 16.99858231018251 -2.6444319133688747 0.9250895880846456
head 8.41767500277276 -1.2790336399814586 0.2287413395086022
lclavicle -2.2663496466503545e-15 6.814469907004574e-16
lhumerus -35.109065288982656 -10.095913195100751 92.85923797066131
lradius 71.2000592233887
lwrist 19.096479839325404
lhand -27.023848023378942 13.25854734992453
lfingers 7.125019999999999
lthumb -0.24555289175145628 42.974874757058174
rclavicle -2.2587730513239114e-15 6.867846109824756e-16
rhumerus -42.22426971134247 -9.085390284361665 -88.38589385435323
rradius 66.34280220982433
rwrist -1.852960595608456
rhand -16.393065619696532 31.504029305146535
rfingers 7.125019999999999
rthumb 9.900465609200552 1.6027139763696938
